<svg width="274" height="274" viewBox="0 0 274 274" fill="none" xmlns="http://www.w3.org/2000/svg">
<rect width="274" height="274" rx="137" fill="black"/>
<path d="M91.1852 188C81.7155 188 73.5467 185.91 66.679 181.729C59.854 177.506 54.5859 171.62 50.8748 164.07C47.2063 156.477 45.3721 147.647 45.3721 137.58C45.3721 127.513 47.2063 118.64 50.8748 110.962C54.5859 103.241 59.7473 97.2268 66.3591 92.9185C73.0135 88.5675 80.777 86.392 89.6496 86.392C94.7684 86.392 99.8232 87.2452 104.814 88.9514C109.805 90.6577 114.348 93.4304 118.443 97.2695C122.538 101.066 125.801 106.099 128.232 112.37C130.664 118.64 131.88 126.361 131.88 135.532V141.931H56.1215V128.878H116.523C116.523 123.333 115.414 118.384 113.196 114.033C111.021 109.683 107.907 106.249 103.854 103.732C99.8445 101.215 95.1096 99.9568 89.6496 99.9568C83.635 99.9568 78.4309 101.45 74.0373 104.436C69.6863 107.379 66.3378 111.218 63.9917 115.953C61.6456 120.688 60.4725 125.764 60.4725 131.181V139.883C60.4725 147.306 61.7522 153.597 64.3116 158.759C66.9136 163.878 70.5181 167.781 75.125 170.468C79.7319 173.113 85.0854 174.435 91.1852 174.435C95.1523 174.435 98.7355 173.881 101.935 172.772C105.177 171.62 107.971 169.914 110.317 167.653C112.663 165.349 114.476 162.491 115.755 159.079L130.344 163.174C128.808 168.122 126.228 172.473 122.602 176.227C118.976 179.938 114.497 182.839 109.165 184.929C103.833 186.976 97.8397 188 91.1852 188Z" fill="white"/>
<path d="M163.472 87.6717L187.019 127.854L210.565 87.6717H227.969L196.232 136.812L227.969 185.952H210.565L187.019 147.818L163.472 185.952H146.068L177.293 136.812L146.068 87.6717H163.472Z" fill="white"/>
</svg>
