<svg width="146" height="201" viewBox="0 0 146 201" fill="none" xmlns="http://www.w3.org/2000/svg">
<path d="M0.302734 162.239L24.9198 4.71697C25.2207 2.78511 26.7232 1.26221 28.6508 0.934736C30.5784 0.607265 32.4992 1.54939 33.4209 3.27357L58.8792 50.7573L69.0269 31.4363C69.8127 29.9424 71.362 29.007 73.0502 29.007C74.7384 29.007 76.2875 29.9424 77.0735 31.4363L145.776 162.238L0.302734 162.239Z" fill="#FFA000"/>
<path d="M85.3483 100.878L58.8675 50.7347L0.302734 162.239L85.3483 100.878Z" fill="#F57C00"/>
<path d="M145.777 162.239L126.922 45.5635C126.638 43.888 125.442 42.5116 123.822 41.9928C122.203 41.4739 120.431 41.9058 119.228 43.107L0.302734 162.237L66.1072 199.14C70.2395 201.447 75.2721 201.447 79.4044 199.14L145.777 162.237V162.239Z" fill="#FFCA28"/>
<path d="M126.922 45.5635C126.637 43.888 125.442 42.5116 123.822 41.9928C122.203 41.4739 120.431 41.9058 119.228 43.107L95.6241 66.771L77.0631 31.4356C76.2772 29.9417 74.7279 29.0063 73.0397 29.0063C71.3516 29.0063 69.8024 29.9417 69.0164 31.4356L58.8688 50.7565L33.4092 3.27357C32.486 1.54893 30.5628 0.608332 28.633 0.938244C26.7031 1.26816 25.2057 2.79488 24.9081 4.72827L0.302494 162.239H0.223145L0.302494 162.33L0.950263 162.648L119.194 44.2678C120.396 43.06 122.172 42.6259 123.796 43.1432C125.42 43.6605 126.617 45.0422 126.899 46.7226L145.595 162.352L145.777 162.238L126.922 45.5635ZM0.518418 162.023L24.9196 5.84221C25.2168 3.90883 26.7177 2.38211 28.6459 2.05219C30.5741 1.72228 32.4975 2.66258 33.4222 4.38752L58.879 51.8712L69.0266 32.5503C69.8125 31.0564 71.3618 30.121 73.0499 30.121C74.7381 30.121 76.2873 31.0564 77.0733 32.5503L95.2577 67.1346L0.518418 162.023Z" fill="white" fill-opacity="0.2"/>
<path opacity="0.2" d="M79.4046 198.028C75.2723 200.335 70.2397 200.335 66.1074 198.028L0.461891 161.227L0.302734 162.239L66.1072 199.131C70.2395 201.438 75.2721 201.438 79.4044 199.131L145.777 162.239L145.607 161.194L79.4046 198.028Z" fill="#A52714"/>
<path d="M126.734 45.5876C126.45 43.9126 125.258 42.5357 123.645 42.0199C122.031 41.5042 120.265 41.933 119.067 43.1339L95.5439 66.7859L77.0493 31.4669C76.266 29.9736 74.7222 29.0385 73.0401 29.0385C71.3581 29.0385 69.8143 29.9736 69.031 31.4669L58.9174 50.7794L33.5483 3.31615C32.6282 1.59228 30.7119 0.651828 28.7904 0.981893C26.8689 1.31196 25.3732 2.83746 25.077 4.77039L0.557129 162.212L66.1317 199.087C70.2495 201.393 75.2645 201.393 79.3825 199.087L145.523 162.212L126.734 45.5873V45.5876Z" fill="url(#paint0_linear_9_221)"/>
<defs>
<linearGradient id="paint0_linear_9_221" x1="-505.374" y1="3403.22" x2="17585.1" y2="12945.7" gradientUnits="userSpaceOnUse">
<stop stop-color="white" stop-opacity="0.1"/>
<stop offset="0.14" stop-color="white" stop-opacity="0.08"/>
<stop offset="0.61" stop-color="white" stop-opacity="0.02"/>
<stop offset="1" stop-color="white" stop-opacity="0"/>
</linearGradient>
</defs>
</svg>
