<svg width="200" height="194" viewBox="0 0 200 194" fill="none" xmlns="http://www.w3.org/2000/svg">
<path d="M196.671 76.7576L196.39 76.0391L169.168 4.9964C168.614 3.604 167.634 2.42282 166.367 1.62234C165.099 0.835461 163.621 0.456474 162.131 0.536551C160.641 0.616629 159.212 1.15191 158.036 2.07013C156.873 3.01471 156.029 4.29465 155.62 5.73577L137.24 61.9701H62.8124L44.4321 5.73577C44.0335 4.2868 43.1881 3.00045 42.0162 2.05972C40.8402 1.1415 39.4109 0.606213 37.9211 0.526135C36.4312 0.446058 34.9527 0.825045 33.6851 1.61192C32.4212 2.41564 31.4414 3.59578 30.8838 4.98598L3.61021 75.9974L3.33945 76.716C-0.579225 86.9548 -1.06292 98.1902 1.96129 108.728C4.98549 119.266 11.3537 128.535 20.1056 135.137L20.1993 135.21L20.4493 135.387L61.9168 166.441L82.432 181.968L94.9285 191.403C96.3902 192.513 98.1751 193.113 100.01 193.113C101.846 193.113 103.631 192.513 105.092 191.403L117.589 181.968L138.104 166.441L179.821 135.2L179.926 135.116C188.658 128.513 195.011 119.253 198.031 108.73C201.05 98.2061 200.573 86.9868 196.671 76.7576Z" fill="#E24329"/>
<path d="M196.671 76.7576L196.39 76.0391C183.126 78.7617 170.627 84.38 159.785 92.4928L100 137.699C120.359 153.101 138.083 166.483 138.083 166.483L179.801 135.241L179.905 135.158C188.65 128.554 195.013 119.289 198.037 108.757C201.06 98.224 200.581 86.9942 196.671 76.7576Z" fill="#FC6D26"/>
<path d="M61.9165 166.483L82.4316 182.01L94.9281 191.444C96.3899 192.554 98.1747 193.155 100.01 193.155C101.845 193.155 103.63 192.554 105.092 191.444L117.588 182.01L138.104 166.483C138.104 166.483 120.359 153.059 99.9996 137.699C79.6407 153.059 61.9165 166.483 61.9165 166.483Z" fill="#FCA326"/>
<path d="M40.2042 92.4928C29.3717 84.3633 16.8753 78.7303 3.61021 75.9974L3.33945 76.716C-0.579225 86.9549 -1.06292 98.1902 1.96129 108.728C4.98549 119.266 11.3537 128.535 20.1056 135.137L20.1993 135.21L20.4493 135.387L61.9168 166.441C61.9168 166.441 79.6203 153.059 100 137.657L40.2042 92.4928Z" fill="#FC6D26"/>
</svg>
