<svg width="90" height="200" viewBox="0 0 90 200" fill="none" xmlns="http://www.w3.org/2000/svg">
<path d="M88.1728 79.5912C77.6363 33.1097 55.6756 20.7357 50.0736 11.9886C47.7636 8.13526 45.7172 4.1299 43.9485 0C43.6526 4.12925 43.1089 6.73067 39.5991 9.86202C32.5518 16.1454 2.62168 40.5354 0.102837 93.3485C-2.24395 142.59 36.3026 172.953 41.3953 176.092C45.3112 178.019 50.0805 176.133 52.4066 174.364C70.9882 161.612 96.3762 127.614 88.1934 79.5912" fill="#10AA50"/>
<path d="M45.5453 149.871C44.5749 162.059 43.8798 169.141 41.416 176.105C41.416 176.105 43.0333 187.709 44.1688 200H48.188C49.1467 191.345 50.6105 182.753 52.5719 174.268C47.369 171.708 45.7448 160.566 45.5453 149.871Z" fill="#B8C4C2"/>
<path d="M52.5653 174.275C47.3074 171.845 45.7865 160.469 45.5525 149.871C46.8528 132.388 47.2318 114.849 46.688 97.3263C46.4127 88.1319 46.8188 12.1675 44.4238 1.04608C46.0621 4.8128 47.9497 8.46611 50.074 11.9817C55.676 20.7357 77.6436 33.1097 88.1732 79.5912C96.3766 127.532 71.1263 161.44 52.5653 174.275Z" fill="#12924F"/>
</svg>
