<svg width="200" height="174" viewBox="0 0 200 174" fill="none" xmlns="http://www.w3.org/2000/svg">
<path fill-rule="evenodd" clip-rule="evenodd" d="M0.391835 2.59078C0.0285595 3.53804 -0.107154 26.1817 0.0916188 52.9106L0.452153 101.51L10.0481 107.295C15.3259 110.475 20.908 113.124 22.4543 113.18C28.1584 113.384 28.5546 111.344 28.5546 81.7505C28.5546 53.1381 29.0371 50.221 33.7666 50.221C34.8235 50.221 43.1898 54.5392 52.3567 59.8169C61.5249 65.0947 70.0749 69.4129 71.358 69.4129C72.6425 69.4129 81.1829 65.0947 90.3388 59.8169C99.4947 54.5392 107.769 50.221 108.727 50.221C112.733 50.221 113.639 54.0854 113.251 69.5116L112.862 84.983L91.966 96.7326L71.0688 108.482L71.4033 125.525L71.7364 142.567L98.468 157.992C113.17 166.475 126.533 173.456 128.163 173.506C130.606 173.581 192.541 139.425 198.197 134.883C199.482 133.851 199.911 125.323 199.911 100.823C199.911 69.3567 199.807 68.0832 197.121 66.6465C194.841 65.4251 192.904 65.9583 186.497 69.5678C182.189 71.9956 176.966 75.1554 174.893 76.5893L171.123 79.1953L171.102 97.2658C171.09 107.204 170.628 116.004 170.074 116.821C168.827 118.658 130.602 140.697 128.662 140.697C126.178 140.697 106.83 129.325 106.106 127.438C104.726 123.841 107.067 121.759 122.188 113.139C146.105 99.5044 143.706 106.293 143.706 52.2498C143.706 23.1097 143.184 5.1995 142.287 3.52158C141.506 2.063 139.434 0.870361 137.684 0.870361C135.932 0.870361 120.539 8.88984 103.474 18.6914C86.4113 28.493 71.9009 36.5125 71.2305 36.5125C70.5588 36.5125 56.0525 28.493 38.9922 18.6914C9.52855 1.76278 1.92582 -1.40799 0.391835 2.59078ZM182.775 6.68688L173.179 12.5966V26.9535C173.179 41.305 173.181 41.3104 176.659 41.7162C178.818 41.9685 183.91 39.9382 190.07 36.3726L200 30.6233L199.612 16.0895C199.23 1.72303 199.186 1.55167 195.798 1.16646C193.65 0.922453 188.792 2.98147 182.775 6.68688Z" fill="#007FFF"/>
</svg>
