<svg width="176" height="200" viewBox="0 0 176 200" fill="none" xmlns="http://www.w3.org/2000/svg">
<mask id="mask0_9_217" style="mask-type:luminance" maskUnits="userSpaceOnUse" x="0" y="0" width="176" height="200">
<path d="M83.2713 1.26518L4.88497 46.509C1.94897 48.2021 0.147949 51.3279 0.147949 54.7067V145.257C0.147949 148.638 1.94897 151.762 4.88497 153.455L83.2769 198.734C86.2073 200.422 89.8205 200.422 92.7472 198.734L171.126 153.455C174.047 151.762 175.852 148.636 175.852 145.257V54.7067C175.852 51.3279 174.047 48.2021 171.108 46.509L92.7398 1.26518C91.2699 0.422338 89.6326 0 87.9953 0C86.358 0 84.7207 0.422338 83.2508 1.26518" fill="white"/>
</mask>
<g mask="url(#mask0_9_217)">
<path d="M255.064 38.8266L34.1852 -69.4406L-79.0684 161.595L141.805 269.868L255.064 38.8266Z" fill="url(#paint0_linear_9_217)"/>
</g>
<mask id="mask1_9_217" style="mask-type:luminance" maskUnits="userSpaceOnUse" x="2" y="0" width="172" height="200">
<path d="M2.09033 151.007C2.84015 151.98 3.77788 152.823 4.8812 153.455L72.1226 192.295L83.3233 198.732C84.9979 199.7 86.9068 200.109 88.7823 199.97C89.4075 199.92 90.0326 199.802 90.6429 199.629L173.316 48.2523C172.683 47.5639 171.943 46.9871 171.113 46.5034L119.787 16.8643L92.656 1.25402C91.8857 0.80748 91.0503 0.491184 90.2 0.267914L2.09033 151.007Z" fill="white"/>
</mask>
<g mask="url(#mask1_9_217)">
<path d="M-93.4092 70.8491L62.5541 281.938L268.818 129.545L112.846 -81.5381L-93.4092 70.8491Z" fill="url(#paint1_linear_9_217)"/>
</g>
<mask id="mask2_9_217" style="mask-type:luminance" maskUnits="userSpaceOnUse" x="5" y="0" width="171" height="200">
<path d="M87.0597 0.0520695C85.7442 0.18231 84.4586 0.591625 83.2734 1.26516L5.11035 46.3787L89.3947 199.895C90.5669 199.728 91.7204 199.337 92.7624 198.734L171.149 153.455C173.567 152.052 175.223 149.678 175.726 146.988L89.804 0.206484C89.1714 0.0818249 88.5388 0.0167236 87.8876 0.0167236C87.6272 0.0167236 87.3667 0.0297273 87.1062 0.0539148" fill="white"/>
</mask>
<g mask="url(#mask2_9_217)">
<path d="M5.1084 0.0167236V199.899H175.692V0.0167236H5.1084Z" fill="url(#paint2_linear_9_217)"/>
</g>
<defs>
<linearGradient id="paint0_linear_9_217" x1="144.558" y1="-15.4773" x2="31.3126" y2="215.543" gradientUnits="userSpaceOnUse">
<stop offset="0.3" stop-color="#3E863D"/>
<stop offset="0.5" stop-color="#55934F"/>
<stop offset="0.8" stop-color="#5AAD45"/>
</linearGradient>
<linearGradient id="paint1_linear_9_217" x1="-14.4929" y1="177.603" x2="191.779" y2="25.1927" gradientUnits="userSpaceOnUse">
<stop offset="0.57" stop-color="#3E863D"/>
<stop offset="0.72" stop-color="#619857"/>
<stop offset="1" stop-color="#76AC64"/>
</linearGradient>
<linearGradient id="paint2_linear_9_217" x1="5.16595" y1="99.9635" x2="175.724" y2="99.9635" gradientUnits="userSpaceOnUse">
<stop offset="0.16" stop-color="#6BBF47"/>
<stop offset="0.38" stop-color="#79B461"/>
<stop offset="0.47" stop-color="#75AC64"/>
<stop offset="0.7" stop-color="#659E5A"/>
<stop offset="0.9" stop-color="#3E863D"/>
</linearGradient>
</defs>
</svg>
