<svg width="86" height="201" viewBox="0 0 86 201" fill="none" xmlns="http://www.w3.org/2000/svg">
<path d="M43.0037 0.848389C52.3417 0.848389 59.9052 8.41188 59.9052 17.7498C59.9052 24.7106 55.6878 30.6932 49.6635 33.2872L49.4804 33.3647V40.4846C49.4804 47.3576 54.5891 53.2089 61.3844 54.1646L61.5909 54.1921L63.6314 54.4582C74.6773 55.8556 83.2389 63.7962 85.4347 74.7089C87.6306 85.6216 82.8396 96.2681 73.1912 101.858C68.8715 104.345 64.1655 105.866 59.1999 106.38L58.9514 106.405L28.276 109.288C25.1486 109.576 22.1986 110.53 19.4704 112.105C13.9032 115.321 12.8163 120.888 13.6592 125.014C14.4936 129.098 17.6106 133.748 23.8496 134.615L26.0802 134.906C39.5188 136.575 49.6748 147.961 49.8766 161.468L49.8796 161.878V168.487C55.8018 171.105 59.9495 177.049 59.9495 183.947C59.9495 193.285 52.386 200.848 43.0481 200.848C33.7102 200.848 26.1467 193.285 26.1467 183.947C26.1467 177.008 30.3423 171.026 36.3447 168.432L36.5271 168.354V161.878C36.5271 155.005 31.4184 149.153 24.6231 148.198L24.4166 148.17L22.376 147.904C11.3302 146.507 2.76864 138.566 0.572785 127.653C-1.64525 116.741 3.16788 106.094 12.8163 100.505C17.136 98.0175 21.842 96.496 26.8076 95.9825L27.0561 95.9576L57.7315 93.0742C60.8589 92.7858 63.8089 91.8321 66.5371 90.2573C72.1043 87.0411 73.1912 81.4739 72.3483 77.3483C71.5139 73.264 68.3969 68.6145 62.1579 67.7472L59.9273 67.4559C46.4887 65.7871 36.3327 54.4009 36.1309 40.8946L36.1278 40.4846V33.1873C30.2279 30.5478 26.1023 24.6257 26.1023 17.7498C26.1023 8.41188 33.6658 0.848389 43.0037 0.848389ZM63.3209 113.946L72.7919 124.326C79.8406 132.078 83.7589 142.068 83.8366 152.511L83.8377 152.828H70.463C70.463 145.669 67.8326 138.815 63.0667 133.492L62.9217 133.331L46.8188 115.676L59.6834 114.456L60.09 114.411C61.0536 114.301 62.0158 114.175 62.9654 114.01L63.3209 113.946ZM14.3689 49.0241C14.3689 56.1825 16.9994 63.0367 21.7652 68.3597L21.9103 68.5206L38.0575 86.2205L26.1689 87.3517L25.8157 87.3839C24.521 87.5081 23.2286 87.6958 21.9656 87.947L21.6219 88.0171L12.0622 77.5258C5.01351 69.7964 1.09523 59.7844 1.01757 49.3407L1.01639 49.0241H14.3689Z" fill="#1C1E21"/>
</svg>
