<svg width="200" height="201" viewBox="0 0 200 201" fill="none" xmlns="http://www.w3.org/2000/svg">
<path d="M180.469 0.155029H19.5312C8.74444 0.155029 0 8.89947 0 19.6863V180.624C0 191.411 8.74444 200.155 19.5312 200.155H180.469C191.256 200.155 200 191.411 200 180.624V19.6863C200 8.89947 191.256 0.155029 180.469 0.155029Z" fill="#3178C6"/>
<path fill-rule="evenodd" clip-rule="evenodd" d="M123.804 159.305V178.86C126.983 180.49 130.743 181.712 135.084 182.527C139.424 183.341 143.999 183.749 148.808 183.749C153.495 183.749 157.948 183.301 162.166 182.404C166.384 181.508 170.083 180.031 173.262 177.974C176.441 175.917 178.958 173.228 180.812 169.907C182.666 166.587 183.594 162.483 183.594 157.594C183.594 154.05 183.064 150.943 182.004 148.275C180.945 145.607 179.416 143.234 177.419 141.156C175.422 139.078 173.028 137.214 170.236 135.564C167.444 133.914 164.296 132.356 160.791 130.889C158.223 129.83 155.92 128.802 153.882 127.803C151.845 126.805 150.112 125.787 148.686 124.748C147.259 123.709 146.159 122.609 145.385 121.448C144.611 120.287 144.223 118.973 144.223 117.506C144.223 116.162 144.57 114.95 145.263 113.87C145.955 112.791 146.934 111.864 148.197 111.09C149.461 110.316 151.009 109.715 152.843 109.287C154.677 108.859 156.715 108.646 158.957 108.646C160.587 108.646 162.309 108.768 164.122 109.012C165.936 109.257 167.76 109.634 169.594 110.143C171.428 110.652 173.211 111.294 174.943 112.068C176.675 112.842 178.275 113.738 179.742 114.757V96.4847C176.767 95.3441 173.517 94.4988 169.991 93.9488C166.466 93.3988 162.421 93.1238 157.856 93.1238C153.21 93.1238 148.808 93.623 144.651 94.621C140.494 95.6191 136.836 97.1773 133.677 99.2957C130.519 101.414 128.023 104.113 126.189 107.393C124.355 110.672 123.438 114.593 123.438 119.156C123.438 124.982 125.119 129.952 128.481 134.067C131.843 138.182 136.948 141.665 143.795 144.517C146.485 145.617 148.992 146.696 151.315 147.755C153.638 148.815 155.645 149.915 157.336 151.055C159.028 152.196 160.362 153.439 161.341 154.783C162.319 156.127 162.808 157.655 162.808 159.366C162.808 160.629 162.502 161.8 161.891 162.88C161.28 163.96 160.352 164.896 159.109 165.691C157.866 166.485 156.318 167.107 154.463 167.555C152.609 168.003 150.439 168.227 147.952 168.227C143.714 168.227 139.516 167.484 135.359 165.996C131.202 164.51 127.35 162.279 123.804 159.305ZM90.9297 111.125H116.016V95.0769H46.0938V111.125H71.057V182.577H90.9297V111.125Z" fill="white"/>
</svg>
