<svg width="200" height="198" viewBox="0 0 200 198" fill="none" xmlns="http://www.w3.org/2000/svg">
<path fill-rule="evenodd" clip-rule="evenodd" d="M100.083 0.848389C44.7396 0.848389 0 45.9178 0 101.675C0 146.244 28.6662 183.971 68.4338 197.324C73.4058 198.328 75.227 195.155 75.227 192.485C75.227 190.148 75.0631 182.136 75.0631 173.788C47.2225 179.798 41.4249 161.769 41.4249 161.769C36.9508 150.083 30.3215 147.08 30.3215 147.08C21.2092 140.904 30.9852 140.904 30.9852 140.904C41.093 141.571 46.3969 151.253 46.3969 151.253C55.3432 166.61 69.7592 162.271 75.5588 159.599C76.3865 153.089 79.0394 148.582 81.8563 146.078C59.6514 143.741 36.2891 135.061 36.2891 96.332C36.2891 85.3146 40.2634 76.3007 46.5608 69.2904C45.5672 66.787 42.0866 56.4353 47.5564 42.5806C47.5564 42.5806 56.0069 39.9092 75.061 52.9302C83.2188 50.7231 91.6317 49.6004 100.083 49.5909C108.533 49.5909 117.148 50.7607 125.102 52.9302C144.159 39.9092 152.609 42.5806 152.609 42.5806C158.079 56.4353 154.596 66.787 153.603 69.2904C160.066 76.3007 163.876 85.3146 163.876 96.332C163.876 135.061 140.514 143.573 118.143 146.078C121.79 149.25 124.936 155.258 124.936 164.774C124.936 178.295 124.773 189.146 124.773 192.483C124.773 195.155 126.596 198.328 131.566 197.326C171.333 183.969 200 146.244 200 101.675C200.163 45.9178 155.26 0.848389 100.083 0.848389Z" fill="#24292F"/>
</svg>
