<svg width="200" height="200" viewBox="0 0 200 200" fill="none" xmlns="http://www.w3.org/2000/svg">
<path fill-rule="evenodd" clip-rule="evenodd" d="M88.8781 0.284599C70.1363 2.41307 52.2172 9.89147 37.2701 21.8229C33.4406 24.8798 25.5815 32.6148 22.6697 36.1929C12.5344 48.6469 5.23528 63.704 2.00506 78.8211C0.480366 85.9561 0.195236 88.8136 0.0711797 98.1952C-0.0538772 107.665 0.0766822 109.871 1.14342 116.338C2.28544 123.261 4.49044 131.119 7.14365 137.723C8.53078 141.175 12.7329 149.425 14.6941 152.545C22.3546 164.735 32.3381 175.14 43.8504 182.931C57.0053 191.834 71.1275 197.198 87.1153 199.365C91.3515 199.94 92.607 200.001 100.116 200C107.688 199.999 108.817 199.943 112.804 199.366C125.222 197.569 134.585 194.744 144.381 189.839C146.135 188.961 147.57 188.189 147.57 188.125C147.57 188.06 145.117 184.713 142.119 180.686C139.121 176.659 135.877 172.295 134.91 170.988C133.943 169.681 128.988 162.984 123.899 156.106C117.6 147.593 111.521 138.97 104.855 129.094C99.4699 121.115 93.3996 112.142 91.366 109.155C89.332 106.167 84.8543 99.5568 81.4152 94.4662C77.9761 89.3759 75.0956 85.2082 75.0138 85.205C74.932 85.2017 74.8014 98.3095 74.7236 114.333C74.5893 141.959 74.5583 143.516 74.1219 144.393C73.2552 146.136 72.7055 146.343 68.7047 146.424C64.7221 146.504 64.0183 146.286 63.0306 144.666C62.5401 143.862 62.5334 143.325 62.5326 104.576L62.5316 65.3014L63.2442 64.5213C64.613 63.0224 65.1643 62.8866 69.5013 62.9809C72.4314 63.0444 73.5579 63.1595 73.9956 63.4398C74.6621 63.867 83.6767 77.3877 119.854 132.22C128.521 145.358 138.557 160.552 142.156 165.986C145.755 171.419 149.937 177.748 151.449 180.049C152.961 182.35 154.269 184.236 154.355 184.239C154.642 184.249 161.162 179.46 163.828 177.282C165.272 176.102 168.428 173.162 170.841 170.749C185.16 156.427 194.718 138.537 198.441 119.089C199.882 111.567 199.966 110.516 199.968 100.081C199.969 89.6803 199.911 88.9209 198.575 81.8225C193.952 57.2755 181.033 36.1267 161.201 20.6431C147.888 10.2486 131.866 3.43503 114.43 0.752812C110.538 0.15379 109.406 0.0917617 101.049 0.0187284C94.4511 -0.0387977 91.0766 0.0347357 88.8781 0.284599ZM135.229 61.2351C135.966 61.9727 136.189 62.4236 136.34 63.4861C136.622 65.47 136.614 133.62 136.331 133.333C136.202 133.203 133.375 128.931 130.049 123.842L124.001 114.587L124.116 88.7904C124.229 63.7335 124.246 62.9691 124.722 62.154C124.992 61.6925 125.6 61.0535 126.074 60.7341C126.894 60.1814 127.111 60.1573 130.621 60.2331L134.307 60.3127L135.229 61.2351Z" fill="black"/>
</svg>
