<svg width="200" height="212" viewBox="0 0 200 212" fill="none" xmlns="http://www.w3.org/2000/svg">
<path d="M100.002 124.33C110.294 124.33 118.638 115.986 118.638 105.694C118.638 95.4011 110.294 87.0573 100.002 87.0573C89.709 87.0573 81.3652 95.4011 81.3652 105.694C81.3652 115.986 89.709 124.33 100.002 124.33Z" fill="#61DAFB"/>
<path d="M195 105.694C195 109.058 193.233 112.834 188.791 116.844C184.35 120.854 177.642 124.694 168.927 128.021C151.533 134.663 127.165 138.876 100 138.876C72.8354 138.876 48.4674 134.663 31.0728 128.021C22.3584 124.694 15.6505 120.854 11.2089 116.844C6.76674 112.834 5 109.058 5 105.694C5 102.33 6.76674 98.5531 11.2089 94.5431C15.6505 90.5336 22.3584 86.6935 31.0728 83.3662C48.4674 76.7246 72.8354 72.5119 100 72.5119C127.165 72.5119 151.533 76.7246 168.927 83.3662C177.642 86.6935 184.35 90.5336 188.791 94.5431C193.233 98.5531 195 102.33 195 105.694Z" stroke="#61DAFB" stroke-width="10"/>
<path d="M147.499 187.966C144.586 189.648 140.432 190.006 134.738 188.164C129.045 186.323 122.365 182.433 115.126 176.55C100.677 164.807 84.845 145.81 71.2627 122.285C57.6804 98.7594 49.1447 75.5497 46.1992 57.1648C44.7235 47.9542 44.6952 40.225 45.9467 34.3737C47.1984 28.5216 49.5856 25.1033 52.499 23.4213C55.4124 21.7392 59.5663 21.381 65.2602 23.223C70.9533 25.0648 77.6328 28.954 84.8716 34.8372C99.3206 46.5806 115.153 65.5775 128.735 89.1028C142.318 112.628 150.853 135.838 153.799 154.223C155.274 163.433 155.303 171.162 154.051 177.014C152.8 182.866 150.412 186.284 147.499 187.966Z" stroke="#61DAFB" stroke-width="10"/>
<path d="M52.499 187.966C49.5856 186.284 47.1984 182.866 45.9467 177.014C44.6952 171.162 44.7235 163.433 46.1992 154.223C49.1447 135.838 57.6804 112.628 71.2627 89.1028C84.845 65.5775 100.677 46.5806 115.126 34.8372C122.365 28.954 129.045 25.0648 134.738 23.223C140.432 21.381 144.586 21.7392 147.499 23.4213C150.412 25.1033 152.8 28.5216 154.051 34.3736C155.303 40.2249 155.274 47.9541 153.799 57.1648C150.853 75.5496 142.318 98.7593 128.735 122.285C115.153 145.81 99.3206 164.807 84.8716 176.55C77.6328 182.433 70.9533 186.323 65.2602 188.164C59.5663 190.006 55.4124 189.648 52.499 187.966Z" stroke="#61DAFB" stroke-width="10"/>
</svg>
