<svg width="200" height="121" viewBox="0 0 200 121" fill="none" xmlns="http://www.w3.org/2000/svg">
<mask id="mask0_9_210" style="mask-type:luminance" maskUnits="userSpaceOnUse" x="0" y="0" width="200" height="121">
<path d="M0 0.8703H200V120.87H0V0.8703Z" fill="white"/>
</mask>
<g mask="url(#mask0_9_210)">
<path fill-rule="evenodd" clip-rule="evenodd" d="M100 0.8703C73.3333 0.8703 56.6667 14.2036 50 40.8703C60 27.537 71.6667 22.537 85 25.8703C92.6074 27.7703 98.0444 33.2925 104.063 39.3999C113.867 49.3518 125.215 60.8703 150 60.8703C176.667 60.8703 193.333 47.537 200 20.8703C190 34.2036 178.333 39.2036 165 35.8703C157.393 33.9703 151.956 28.4481 145.937 22.3407C136.133 12.3888 124.785 0.8703 100 0.8703ZM50 60.8703C23.3333 60.8703 6.66667 74.2036 0 100.87C10 87.537 21.6667 82.537 35 85.8703C42.6074 87.774 48.0444 93.2925 54.063 99.3999C63.8667 109.352 75.2148 120.87 100 120.87C126.667 120.87 143.333 107.537 150 80.8703C140 94.2036 128.333 99.2036 115 95.8703C107.393 93.9703 101.956 88.4481 95.937 82.3407C86.1333 72.3888 74.7852 60.8703 50 60.8703Z" fill="#38BDF8"/>
</g>
</svg>
